<svg xmlns="http://www.w3.org/2000/svg" viewBox="0 0 200 200" fill="none">
  <path d="M54 30 C52 28, 56 26, 58 28 L60 42 C58 44, 54 44, 52 42Z" fill="#d97757"/>
  <path d="M42 46 C44 42, 64 41, 66 46 L68 100 C66 106, 44 107, 42 100Z" fill="#d97757"/>
  <path d="M54 100 L52 126 C50 130, 58 132, 60 128 L62 102Z" fill="#d97757"/>
  <path d="M92 18 C90 16, 96 14, 98 16 L100 36 C98 38, 94 38, 92 36Z" fill="#d97757"/>
  <path d="M84 36 C86 32, 108 31, 110 36 L112 120 C110 126, 88 127, 84 120Z" fill="#d97757"/>
  <path d="M96 120 L94 150 C92 154, 100 156, 102 152 L104 122Z" fill="#d97757"/>
  <path d="M140 52 C142 48, 148 50, 146 54 L144 68Z" fill="#d97757"/>
  <path d="M132 68 C134 64, 152 63, 156 68 L158 112 C156 118, 136 119, 132 112Z" fill="#d97757"/>
  <path d="M142 112 L140 140 C138 144, 146 146, 148 142 L150 114Z" fill="#d97757"/>
</svg>
